<?xml version="1.0" encoding="iso-8859-1"?>

<!DOCTYPE svg PUBLIC "-//W3C//DTD SVG 1.1//EN" "http://www.w3.org/Graphics/SVG/1.1/DTD/svg11.dtd">
<!-- Uploaded to: SVG Repo, www.svgrepo.com, Generator: SVG Repo Mixer Tools -->
<svg height="50px" width="50px" version="1.1" id="_x35_" xmlns="http://www.w3.org/2000/svg" xmlns:xlink="http://www.w3.org/1999/xlink"
	 viewBox="0 0 512 512"  xml:space="preserve">
<g>
	<path style="opacity:0.1;fill:#040000;" d="M338.811,251.611c-3.591-26.932-19.587-42.847-28.891-49.947
		c-2.04-1.55-4.489-3.265-7.427-4.978c-0.082-0.163-0.245-0.245-0.327-0.245c-5.142-3.02-11.671-6.039-19.342-7.998
		c-8.243-2.122-17.791-3.101-28.564-1.715c-26.932,3.592-42.847,19.588-49.947,28.891c-1.795,2.285-3.754,5.142-5.794,8.651
		c-6.04,10.692-11.834,26.769-9.141,47.009c2.612,19.831,11.997,33.705,20.485,42.438c2.775,2.938,5.469,5.223,7.753,7.1
		c0.082,0,0.163,0.082,0.245,0.163c0.081,0.082,0.245,0.163,0.326,0.245c9.222,7.1,28.81,18.444,55.742,14.935
		c26.932-3.509,42.847-19.586,49.947-28.81c3.754-4.978,8.896-12.976,12.16-23.504c0.163-0.572,0.326-1.144,0.49-1.796
		C339.056,273.484,340.361,263.201,338.811,251.611z M281.927,226.557c2.53,1.223,4.57,2.611,6.039,3.754
		c4.815,3.754,13.139,11.997,15.017,26.034c0.571,4.816,0.326,9.142-0.49,12.977c-1.469,7.344-4.897,12.813-7.345,15.996
		c-3.673,4.815-11.916,13.139-25.953,15.017c-14.037,1.878-24.158-4.081-28.972-7.753c-0.653-0.489-1.387-1.061-2.122-1.796
		c-2.775-2.366-6.039-5.958-8.651-10.773c-1.959-3.754-3.591-8.161-4.244-13.466c-1.714-12.894,3.183-22.525,6.856-27.748
		c0.326-0.408,0.571-0.817,0.898-1.224c3.673-4.815,11.997-13.14,25.953-15.017c1.469-0.163,2.857-0.245,4.162-0.327
		c7.753-0.245,14.119,1.877,18.771,4.244C281.845,226.475,281.927,226.475,281.927,226.557z"/>
	<path style="fill:#F6F9FD;" d="M269.616,359.337c-31.187,4.105-60.966-6.029-82.791-25.377l-76.952,132.174
		c50.497,35.138,113.743,52.29,179.543,43.629c95.331-12.548,171.466-76.044,204.611-159.479l-139.425-60.38
		C342.124,326.075,310.13,354.005,269.616,359.337z"/>
	<path style="fill:#898375;" d="M330.731,246.143c-3.509-26.361-18.934-42.193-28.238-49.457c-0.082-0.163-0.245-0.245-0.327-0.245
		c-0.081-0.163-0.163-0.163-0.245-0.244c-5.55-4.244-14.854-10.039-27.177-13.222c-8.243-2.122-17.792-3.1-28.564-1.714
		c-26.932,3.59-42.847,19.587-49.947,28.891c-1.714,2.285-3.754,5.141-5.795,8.65c-6.039,10.691-11.833,26.769-9.14,47.009
		c2.612,19.832,11.997,33.706,20.485,42.439c3.02,3.182,5.958,5.631,8.325,7.508c2.04,1.55,4.57,3.265,7.508,5.06
		c0.082,0,0.163,0.082,0.245,0.163c10.61,6.203,27.096,12.405,47.988,9.712c26.932-3.591,42.847-19.588,49.947-28.81
		c3.836-4.979,8.896-12.977,12.16-23.504C330.813,269.403,332.363,258.548,330.731,246.143z M232.143,287.113
		c-3.02-2.285-7.427-6.448-10.691-12.569c-2.04-3.754-3.673-8.161-4.326-13.465c-1.714-12.896,3.183-22.525,6.856-27.749
		c0.326-0.407,0.652-0.816,0.898-1.224c3.673-4.815,11.997-13.139,26.035-15.016c1.387-0.163,2.775-0.245,4.162-0.327
		c11.833-0.326,20.485,4.815,24.81,8.08c0.571,0.49,1.224,0.979,1.959,1.633c0,0,0.082,0,0.082,0.082
		c4.815,4.244,11.344,12.079,12.977,24.321c0.652,4.815,0.326,9.141-0.408,12.976c-1.551,7.345-4.978,12.813-7.345,15.997
		c-3.754,4.814-11.997,13.138-26.035,15.015c-9.712,1.307-17.547-1.142-23.015-4.081
		C235.571,289.561,233.612,288.255,232.143,287.113z"/>
	<path style="fill:#E7EDEF;" d="M186.848,333.958l-18.199,31.258l-1.306,2.285l-15.017,25.789l-5.223,8.978l-35.828,61.535
		l-1.388,2.366c-28.483-19.75-52.803-45.294-71.411-75.165c-18.607-29.951-31.339-64.31-36.236-101.608
		c-6.692-50.518,1.877-99.567,22.199-142.496l67.494,29.217l9.549,4.162l27.177,11.753l2.367,1.06l32.808,14.201
		c-9.794,18.445-14.119,39.99-11.181,62.272C156.08,295.519,168.73,317.881,186.848,333.958z"/>
	<path style="fill:#E7EDEF;" d="M494.038,350.281l-67.412-29.217l-9.712-4.162l-27.177-11.753l-2.367-1.06l-32.808-14.201
		c5.142-14.772,7.019-30.932,4.815-47.499c-5.386-40.643-33.379-72.636-69.697-85.122l18.199-31.258l1.306-2.204l15.017-25.789
		l5.305-9.142l37.134-63.739c11.099,5.305,21.709,11.344,31.829,18.2c27.666,18.526,51.579,42.358,70.268,70.268
		c21.219,31.666,35.746,68.555,41.051,108.954C515.666,267.445,509.627,311.026,494.038,350.281z"/>
	<path style="fill:#F6F9FD;" d="M366.641,25.136l-37.134,63.739l-5.305,9.142l-15.017,25.789l-1.306,2.204l-18.199,31.258
		c-14.69-4.979-30.768-6.774-47.254-4.652c-34.848,4.571-63.331,25.871-78.593,54.68l-32.808-14.201l-2.367-1.06l-27.177-11.753
		l-9.549-4.162l-67.494-29.217C60.348,70.839,132.983,14.036,222.594,2.203C273.765-4.49,323.386,4.325,366.641,25.136z"/>
	<path style="fill:#F6F9FD;" d="M315.787,301.852c-7.095,9.247-23.02,25.289-49.942,28.832
		c-26.922,3.543-46.455-7.831-55.702-14.927c-2.434-1.867-5.34-4.353-8.363-7.484l-14.955,25.687
		c21.825,19.348,51.604,29.482,82.791,25.377c40.514-5.332,72.508-33.262,84.985-69.433l-26.618-11.527
		C324.678,288.888,319.612,296.867,315.787,301.852z"/>
	<path style="fill:#F6F9FD;" d="M181.311,265.815c-2.667-20.259,3.115-36.332,9.163-46.988l-26.645-11.539
		c-9.769,18.456-14.104,40.017-11.171,62.298c3.408,25.894,16.046,48.309,34.167,64.373l14.955-25.687
		C193.316,299.511,183.922,285.652,181.311,265.815z"/>
	<path style="fill:#F6F9FD;" d="M301.882,196.209c9.247,7.096,25.289,23.019,28.832,49.942c1.633,12.408,0.094,23.242-2.731,32.227
		l26.618,11.527c5.102-14.791,6.946-30.958,4.765-47.525c-5.345-40.611-33.396-72.661-69.692-85.074l-14.937,25.656
		C287.072,186.153,296.332,191.95,301.882,196.209z"/>
	<path style="fill:#F6F9FD;" d="M163.83,207.289l26.645,11.539c1.989-3.505,4.008-6.425,5.764-8.714
		c7.096-9.247,23.02-25.289,49.942-28.832c10.763-1.417,20.341-0.445,28.557,1.68l14.937-25.656
		c-14.721-5.034-30.795-6.845-47.265-4.677C207.608,157.21,179.089,178.461,163.83,207.289z"/>
	<g style="opacity:0.15;">
		<path style="fill:#F6F9FD;" d="M436.909,232.187c-3.183-24.402-11.099-47.499-23.505-68.555
			c-11.915-20.322-27.503-38.032-46.274-52.396c-11.752-8.976-24.32-16.485-37.623-22.362c-8.08-3.509-16.404-6.528-24.973-8.896
			c-23.586-6.447-47.907-8.161-72.309-4.897c-24.484,3.183-47.498,11.099-68.554,23.505c-20.403,11.916-38.032,27.503-52.395,46.275
			c-7.509,9.875-14.038,20.24-19.342,31.257c-4.897,10.038-8.896,20.567-11.916,31.421c-6.447,23.504-8.161,47.826-4.897,72.228
			c3.183,24.484,11.1,47.498,23.423,68.554c11.997,20.403,27.585,38.032,46.356,52.396c0.734,0.571,1.469,1.143,2.203,1.551
			c18.282,13.71,38.603,23.667,60.394,29.706c23.586,6.448,47.907,8.161,72.309,4.898c24.402-3.184,47.499-11.1,68.555-23.424
			c20.403-11.997,38.031-27.584,52.395-46.355c10.855-14.201,19.506-29.625,25.871-46.03c2.04-5.468,3.836-10.936,5.387-16.568
			C438.46,280.91,440.174,256.59,436.909,232.187z M416.914,316.902c-21.709,57.292-73.533,101.2-138.415,109.77
			c-46.601,6.121-91.325-7.02-126.174-33.38c-35.501-26.851-60.72-67.331-67.004-114.83c-4.57-34.848,1.632-68.717,16.16-98.18
			c24.565-50.029,72.798-87.163,132.049-94.997c31.992-4.244,63.086,0.654,90.672,12.732
			c53.783,23.259,94.263,73.37,102.506,135.477C430.544,262.711,426.789,291.193,416.914,316.902z"/>
	</g>
	<g style="opacity:0.2;">
		<path style="fill:#F6F9FD;" d="M397.246,237.411c-4.897-37.787-24.32-71.33-54.517-94.507
			c-10.447-7.998-21.709-14.364-33.543-19.098c-22.443-9.14-47.009-12.324-71.738-9.059c-37.787,4.897-71.329,24.322-94.507,54.518
			c-5.55,7.181-10.283,14.853-14.282,22.77c-12.813,25.299-17.629,53.781-13.874,82.509c4.815,36.971,23.505,69.861,52.559,92.958
			c0.652,0.489,1.306,1.06,1.959,1.55c30.197,23.178,67.575,33.135,105.28,28.238c37.787-4.978,71.33-24.402,94.508-54.599
			c8.896-11.589,15.833-24.239,20.648-37.543C397.654,283.767,400.347,260.67,397.246,237.411z M387.37,304.089
			c-4.815,13.139-11.671,25.626-20.403,37.052c-22.688,29.625-55.66,48.642-92.712,53.538
			c-37.052,4.897-73.778-4.978-103.403-27.667c-0.735-0.572-1.469-1.143-2.204-1.795c-28.401-22.607-46.601-54.844-51.334-90.999
			c-3.754-28.239,1.143-56.231,13.711-81.124c3.917-7.753,8.569-15.261,13.956-22.28c22.77-29.626,55.741-48.641,92.794-53.539
			c24.157-3.182,48.151-0.081,70.105,8.733c11.752,4.734,22.933,11.099,33.298,19.016c29.625,22.688,48.641,55.66,53.538,92.711
			C397.735,260.507,395.124,283.114,387.37,304.089z"/>
	</g>
</g>
</svg>